<svg width="107" height="56" viewBox="0 0 107 56" fill="none" xmlns="http://www.w3.org/2000/svg">
<path d="M30.839 28.3113C31.3692 28.3841 31.9042 28.4168 32.4393 28.409H39.395C40.7114 28.4177 42.027 28.3434 43.334 28.1864L43.3349 28.1862C44.5066 28.0381 45.5031 27.715 46.3194 27.2121L46.3205 27.2114C47.1574 26.6859 47.8151 25.9188 48.2066 25.0114C48.6435 24.0503 48.8568 22.7656 48.8568 21.1671V12.1322C48.8568 12.1322 48.8568 12.1322 48.8568 12.1321C48.8576 10.4464 48.7093 9.04229 48.4085 7.92356C48.1059 6.79868 47.5797 5.90253 46.8245 5.24432C46.0709 4.58343 45.0654 4.12973 43.8177 3.87584C42.575 3.62296 41.0258 3.49756 39.1727 3.49756H32.4072C31.8599 3.48858 31.3131 3.53281 30.7743 3.62963C30.4068 3.6916 30.0589 3.83868 29.7583 4.05913L29.7583 4.05908L29.755 4.06163C29.4997 4.25996 29.3145 4.53461 29.2262 4.84557L29.2261 4.84556L29.2253 4.84887C29.134 5.20081 29.0923 5.56378 29.1014 5.92725V25.8184C29.0901 26.2428 29.1382 26.6667 29.2443 27.0778L29.2443 27.0778L29.2448 27.0798C29.3342 27.4078 29.528 27.6978 29.7969 27.9059L29.7968 27.906L29.802 27.9097C30.1092 28.1272 30.4655 28.2651 30.839 28.3113ZM30.839 28.3113C30.8394 28.3113 30.8398 28.3114 30.8401 28.3114L30.8584 28.1625L30.838 28.3111C30.8383 28.3112 30.8387 28.3112 30.839 28.3113ZM38.6238 21.0243L38.6238 21.0243L38.6195 21.0242L37.6608 21.0191V10.8978H38.5913V10.8979L38.5945 10.8978C38.8825 10.8915 39.1696 10.9313 39.4451 11.0154C39.6683 11.0944 39.8553 11.2518 39.971 11.4585L39.971 11.4585L39.9733 11.4624C40.114 11.6966 40.2222 12.0505 40.2853 12.5396C40.3579 13.1956 40.3902 13.8554 40.382 14.5153L40.382 14.5153V14.5172L40.3819 17.6051L40.382 17.6069C40.3896 18.2158 40.3573 18.8245 40.2853 19.4291L40.2853 19.4291L40.285 19.4322C40.2494 19.795 40.1465 20.1481 39.9815 20.4732C39.8764 20.6761 39.6998 20.8328 39.4859 20.9128C39.2065 20.9965 38.9153 21.0342 38.6238 21.0243ZM45.7076 7.43905L45.7078 7.43892L45.7031 7.4313C45.4154 6.97274 44.908 6.56474 44.2011 6.20022V6.19142L44.1153 6.15078C43.988 6.09043 43.871 6.01028 43.7688 5.91331C43.7419 5.88465 43.7299 5.85418 43.7299 5.81457C43.7299 5.76921 43.7461 5.70422 43.7938 5.61588C43.8193 5.5716 43.8562 5.53494 43.9006 5.50972C43.9454 5.48427 43.9963 5.47142 44.0479 5.47252L44.0479 5.47258L44.0521 5.47255C44.1927 5.47165 44.3323 5.4957 44.4645 5.54355C44.8144 5.70523 45.1418 5.91164 45.4386 6.15761L45.4399 6.1587C45.7621 6.41951 46.0364 6.73442 46.2505 7.08933L46.256 7.09839L46.2626 7.10658C46.2987 7.15086 46.3246 7.20254 46.3384 7.25795C46.352 7.31249 46.3536 7.36932 46.3431 7.42452C46.3341 7.46128 46.3178 7.49584 46.2951 7.52613C46.2726 7.55611 46.2443 7.58126 46.212 7.6001C46.124 7.64286 46.0229 7.65041 45.9294 7.62109C45.8347 7.59139 45.7552 7.52614 45.7076 7.43905Z" fill="#6D94F0" stroke="white" stroke-width="0.3" stroke-miterlimit="10"/>
<path d="M51.5865 24.0567L51.5864 24.0567C51.3506 24.6887 51.059 25.182 50.7059 25.5259L50.7047 25.527C50.3355 25.8787 49.8654 26.1059 49.3605 26.1769C48.7251 26.267 48.0835 26.3073 47.4418 26.2975C46.8727 26.3054 46.3041 26.265 45.7419 26.1766C45.2813 26.108 44.8524 25.9009 44.5124 25.5827L44.5107 25.5811C44.1858 25.2675 43.9717 24.8258 43.858 24.2703C43.7446 23.7164 43.7175 22.9716 43.7718 22.0418L43.7718 22.0415C43.8278 21.1118 43.9672 19.9608 44.1892 18.5896C44.4113 17.2181 44.7259 15.5713 45.1328 13.6495C45.5396 11.7096 45.9047 10.055 46.2283 8.68587C46.4935 7.51392 46.833 6.36006 47.245 5.2313L47.2457 5.22939L47.2457 5.22939C47.5994 4.29944 47.9794 3.56031 48.3879 3.01763C48.7777 2.49117 49.2853 2.06318 49.8701 1.76787L49.8728 1.76647L49.8728 1.7665C50.498 1.46682 51.1726 1.2836 51.8634 1.22582C52.6082 1.1514 53.4906 1.1144 54.51 1.1144C55.5293 1.1144 56.4117 1.1514 57.1565 1.22582C57.8477 1.28377 58.5226 1.46697 59.1482 1.76646L59.1511 1.76784L59.1511 1.76787C59.7358 2.06317 60.2433 2.49115 60.6332 3.01759C60.6333 3.01777 60.6334 3.01795 60.6336 3.01813L60.513 3.10737C60.9101 3.63394 61.2842 4.35905 61.6352 5.28272L51.5865 24.0567ZM51.5865 24.0567L51.5877 24.0532C51.8611 23.2613 52.0732 22.4497 52.2223 21.6254C52.5363 21.6395 52.8644 21.6466 53.2067 21.6466H55.7704C56.1383 21.6466 56.4896 21.6391 56.8226 21.625C56.9711 22.4473 57.1774 23.2581 57.44 24.0514L57.4399 24.0515L57.4413 24.0554C57.67 24.687 57.9581 25.1807 58.3115 25.5257L58.3126 25.5268C58.6775 25.8761 59.142 26.1032 59.6418 26.1768L59.6425 26.1769C60.2828 26.2679 60.9292 26.3082 61.5758 26.2975C62.145 26.3054 62.7137 26.265 63.276 26.1766C63.7394 26.1059 64.1715 25.8997 64.518 25.5841L64.518 25.5841L64.5197 25.5825C64.8532 25.269 65.0722 24.8268 65.1869 24.2705C65.301 23.7172 65.3331 22.9729 65.2876 22.0432L65.2874 22.041C65.2138 20.883 65.0743 19.7302 64.8698 18.5881C64.6406 17.2195 64.3225 15.5732 63.9157 13.6496L51.5865 24.0567ZM57.9457 3.89722C58.1224 3.89537 58.2977 3.92876 58.4614 3.99545C58.625 4.06213 58.7737 4.16077 58.8988 4.28559M57.9457 3.89722C57.8032 3.90009 57.6616 3.87331 57.53 3.81859M57.9457 3.89722L57.9442 3.74723C58.1408 3.74517 58.3359 3.78233 58.518 3.85654C58.6997 3.93058 58.8648 4.04003 59.0038 4.17851M57.9457 3.89722L57.9427 3.74725C57.8211 3.7497 57.7003 3.72688 57.5879 3.68025M58.8988 4.28559C59.1672 4.5445 59.3292 4.78277 59.3848 5.00038C59.3973 5.0664 59.4255 5.12846 59.4669 5.18132C59.5084 5.23419 59.562 5.27632 59.6231 5.30417M58.8988 4.28559L59.0047 4.17941C59.0044 4.17911 59.0041 4.17881 59.0038 4.17851M58.8988 4.28559L59.0029 4.17762C59.0032 4.17792 59.0035 4.17821 59.0038 4.17851M59.6231 5.30417C59.6924 5.33135 59.7669 5.34299 59.8412 5.33826C59.9155 5.33352 59.9879 5.31253 60.0532 5.27677C60.1174 5.25159 60.174 5.21031 60.2176 5.15689C60.2612 5.10348 60.2903 5.03973 60.3022 4.97179C60.3226 4.86052 60.3131 4.74583 60.2748 4.63941C60.1005 4.14591 59.7939 3.70985 59.3884 3.379M59.6231 5.30417L59.6853 5.16765C59.6841 5.16711 59.6829 5.16656 59.6817 5.166M59.6231 5.30417L59.6779 5.16452C59.6791 5.16502 59.6804 5.16552 59.6817 5.166M59.3884 3.379C58.9818 3.07217 58.4822 2.91445 57.9731 2.93225C57.8199 2.92938 57.6681 2.96243 57.53 3.02875M59.3884 3.379L59.2936 3.49522C59.2943 3.49582 59.2951 3.49642 59.2958 3.49702M59.3884 3.379L59.2981 3.49873C59.2973 3.49816 59.2965 3.49759 59.2958 3.49702M57.53 3.02875C57.4001 3.09427 57.3358 3.2277 57.3358 3.43022C57.3358 3.63275 57.4001 3.76379 57.53 3.81859M57.53 3.02875L57.5949 3.16398C57.5954 3.16374 57.5958 3.1635 57.5963 3.16327M57.53 3.02875L57.5975 3.16267C57.5971 3.16286 57.5967 3.16307 57.5963 3.16327M57.53 3.81859L57.5883 3.68039C57.5882 3.68035 57.588 3.6803 57.5879 3.68025M57.53 3.81859L57.5875 3.68008C57.5877 3.68014 57.5878 3.68019 57.5879 3.68025M57.5879 3.68025C57.5385 3.65924 57.4858 3.60447 57.4858 3.43022C57.4858 3.25968 57.537 3.19372 57.5963 3.16327M57.5963 3.16327C57.713 3.10756 57.841 3.0798 57.9703 3.08222L57.9703 3.08244L57.9784 3.08216C58.4521 3.06559 58.9171 3.21205 59.2958 3.49702M59.2958 3.49702C59.6789 3.81026 59.9686 4.22269 60.1333 4.68934L60.1336 4.69027C60.163 4.77174 60.1702 4.85954 60.1546 4.94472L60.1544 4.94609C60.147 4.98864 60.1287 5.02857 60.1014 5.06203C60.0741 5.09549 60.0386 5.12135 59.9984 5.13712L59.9895 5.14061L59.9811 5.1452C59.9351 5.17042 59.884 5.18522 59.8316 5.18856C59.7806 5.19181 59.7295 5.18411 59.6817 5.166M59.6817 5.166C59.6439 5.14812 59.6108 5.12168 59.585 5.08875C59.5583 5.0548 59.5402 5.01494 59.5322 4.97253L59.5325 4.97248L59.5302 4.96325C59.4646 4.70653 59.28 4.44504 59.0038 4.17851M54.4254 14.9718L54.4247 14.9718L53.3279 14.977C53.5357 13.7309 53.7021 12.7567 53.825 12.0501C53.9536 11.3109 54.0634 10.7747 54.1543 10.4413C54.2001 10.2735 54.2421 10.1423 54.2807 10.0459C54.3214 9.94392 54.3514 9.89906 54.365 9.88567L54.3651 9.88582L54.3705 9.87998C54.3882 9.86061 54.4097 9.8451 54.4337 9.83443C54.456 9.82451 54.48 9.81896 54.5043 9.81808C54.525 9.82009 54.5451 9.82587 54.5637 9.83516C54.5838 9.84525 54.6018 9.85927 54.6165 9.87639L54.6161 9.87668L54.6243 9.88483C54.6375 9.89799 54.6676 9.94386 54.7086 10.0486C54.7474 10.1473 54.7897 10.2819 54.8354 10.454C54.9254 10.8041 55.0398 11.3452 55.1786 12.0797C55.3108 12.7788 55.4804 13.7478 55.6877 14.9872C55.5096 14.9771 55.3342 14.9718 55.1604 14.9718L54.4254 14.9718Z" fill="#6D94F0" stroke="white" stroke-width="0.3" stroke-miterlimit="10"/>
<path d="M66.2228 31.7669C65.5866 31.7737 64.9507 31.7363 64.3197 31.655C63.8234 31.5961 63.3508 31.4101 62.9475 31.1149L62.9453 31.1133C62.5654 30.8243 62.2732 30.3963 62.062 29.8416C61.8515 29.2889 61.6972 28.5542 61.5956 27.6426C61.4941 26.7312 61.4292 25.5946 61.4006 24.2339C61.3719 22.8744 61.358 21.2337 61.3588 19.3118L66.2228 31.7669ZM66.2228 31.7669C66.8574 31.7735 67.4917 31.7361 68.1212 31.655C68.6175 31.5962 69.0902 31.4101 69.4935 31.1149L69.4935 31.1149L69.4957 31.1133C69.8756 30.8243 70.1678 30.3963 70.379 29.8416C70.5894 29.2889 70.7438 28.5542 70.8454 27.6426M66.2228 31.7669L71.0822 19.3119C71.0822 21.2337 71.0683 22.8744 71.0404 24.2338C71.0126 25.5945 70.9477 26.7311 70.8454 27.6426M70.8454 27.6426C70.8453 27.6427 70.8453 27.6427 70.8453 27.6428L70.6963 27.626L70.8454 27.6426ZM70.9322 19.3118H71.0822C71.083 17.3884 71.069 15.7472 71.0404 14.3885C71.0118 13.0286 70.9469 11.8924 70.8454 10.981M70.9322 19.3118L70.8454 10.981M70.9322 19.3118C70.933 17.389 70.9191 15.749 70.8905 14.3917C70.8619 13.0343 70.7971 11.903 70.6963 10.9976C70.5962 10.0914 70.4437 9.37064 70.2388 8.83534C70.0339 8.30005 69.7559 7.89817 69.4049 7.62973L70.9322 19.3118ZM70.8454 10.981C70.8454 10.981 70.8454 10.9811 70.8454 10.9811L70.6965 10.9976L70.8454 10.981ZM68.1204 6.9685C66.8566 6.81937 65.5796 6.81937 64.3159 6.9685L64.3157 6.96852C63.8206 7.02757 63.3492 7.2137 62.9473 7.50883L62.9472 7.50867L62.9413 7.51351C62.5339 7.84593 62.2288 8.28663 62.0609 8.78484C61.8518 9.33715 61.6978 10.0708 61.5956 10.9808L68.1204 6.9685ZM68.1204 6.9685C68.1203 6.96849 68.1203 6.96849 68.1202 6.96848L68.1028 7.11746M68.1204 6.9685L68.1028 7.11746M68.1204 6.9685L68.1028 7.11746M68.1204 6.9685L68.1028 7.11746M69.4049 30.9939C69.0222 31.274 68.5737 31.4504 68.1028 31.5061L69.4049 30.9939ZM68.2575 8.71796L68.2183 8.86274L68.2433 8.71484C68.1833 8.70472 68.1294 8.67239 68.0922 8.62428C68.055 8.57617 68.0373 8.51582 68.0425 8.45524L68.0431 8.45529V8.44221C68.0431 8.30422 68.074 8.22874 68.1095 8.1886C68.1415 8.15239 68.1974 8.12228 68.3054 8.12165C68.3995 8.12654 68.4917 8.14991 68.5767 8.19044L68.5767 8.19054L68.5818 8.19275C68.6976 8.24274 68.8054 8.30957 68.9017 8.39109L68.9017 8.3911L68.9031 8.39229C69.003 8.47471 69.0928 8.56856 69.1708 8.67192L69.1707 8.67194L69.1726 8.67431C69.2272 8.74372 69.2577 8.82899 69.2597 8.91727L69.2597 8.91768C69.2618 9.00268 69.2342 9.08575 69.1817 9.15261C69.157 9.18281 69.1256 9.20676 69.0899 9.2225C69.0538 9.23838 69.0146 9.24545 68.9753 9.24314L68.9672 9.24267L68.9591 9.24306C68.9056 9.24569 68.8525 9.23251 68.8064 9.20517C68.7606 9.17799 68.7238 9.138 68.7004 9.09014C68.6582 8.99984 68.5968 8.9198 68.5206 8.8556C68.444 8.7911 68.3542 8.74413 68.2575 8.71796ZM61.4006 14.3886C61.3727 15.7488 61.3588 17.3899 61.3588 19.3117L61.5956 10.9809C61.4933 11.8908 61.4284 13.0271 61.4006 14.3886Z" fill="#6D94F0" stroke="white" stroke-width="0.3" stroke-miterlimit="10"/>
<path d="M68.8867 19.0347L68.8869 19.0348C68.9829 18.7949 69.204 18.6284 69.5011 18.5196C69.8006 18.4099 70.2419 18.3498 70.8093 18.3306C71.3753 18.3115 72.1481 18.3032 73.1279 18.3032H73.13C74.1066 18.3032 74.8747 18.3032 75.4304 18.3163C75.4309 18.3163 75.4314 18.3163 75.4318 18.3163L75.4283 18.4663C75.845 18.4679 76.2613 18.491 76.6756 18.5354L68.8867 19.0347ZM68.8867 19.0347L68.884 19.0427C68.7945 19.3086 68.7543 19.5887 68.7654 19.8691M68.8867 19.0347L68.7654 19.8691M88.9587 22.9572C89.1151 21.9544 89.1898 20.9406 89.182 19.9257L89.1819 19.9238L89.1546 18.5684C89.1542 17.5604 88.8332 16.5787 88.2381 15.7651L88.2381 15.7651C87.9249 15.3372 87.5504 14.9578 87.1267 14.639L87.1265 14.6389C86.6693 14.296 86.1586 14.0309 85.6151 13.8542C85.6148 13.854 85.6144 13.8539 85.614 13.8538L82.0686 12.6358L82.0673 12.6354C81.2326 12.3572 80.5611 12.1437 80.0534 11.9952C79.5495 11.8478 79.1407 11.7195 78.8263 11.6103L78.8263 11.6103L78.8239 11.6095C78.5858 11.5313 78.3579 11.4251 78.1448 11.2931C77.9838 11.1803 77.8485 11.0344 77.7481 10.8653L77.7482 10.8652L77.745 10.8603C77.5484 10.5568 77.4502 10.1999 77.464 9.83849L77.4641 9.8385L77.4642 9.83333C77.4657 9.42466 77.5426 9.13097 77.6764 8.93431C77.7971 8.75696 78.0049 8.65326 78.3423 8.65326H79.617C79.9523 8.65326 80.1608 8.75677 80.2832 8.93489C80.4181 9.13121 80.4951 9.42441 80.4951 9.83277V10.5717C80.4848 10.7528 80.5318 10.9327 80.6294 11.0857L80.6293 11.0858L80.6333 11.0914C80.6917 11.1744 80.7807 11.2341 80.8812 11.2793C80.9829 11.325 81.108 11.3611 81.2528 11.3903L81.2528 11.3904L81.2584 11.3914C81.6832 11.4603 82.113 11.4932 82.5433 11.4898C83.1092 11.5001 83.8808 11.5049 84.8577 11.5041C85.8347 11.5033 86.6034 11.4894 87.1626 11.4623C87.5988 11.4566 88.0319 11.389 88.4491 11.2617L88.4492 11.2619L88.457 11.259C88.7597 11.148 88.9789 10.9706 89.0729 10.712L89.0731 10.712L89.0754 10.7044C89.1645 10.4111 89.2042 10.1052 89.1927 9.79894V8.25308V8.25277C89.1887 6.2852 88.6347 4.7667 87.509 3.72327C86.3875 2.68378 84.8508 2.17269 82.9181 2.17269L75.0411 2.17269L75.0408 2.17269C73.1112 2.17672 71.5745 2.68989 70.4493 3.72905C69.3194 4.77253 68.7654 6.29124 68.7654 8.25904L68.7654 10.6417L68.7654 10.6418C68.7662 11.9422 69.0868 13.0208 69.739 13.8653L69.7394 13.8659C70.3973 14.7087 71.2873 15.3407 72.2997 15.6841L75.9551 17.0411C76.8086 17.374 77.5006 17.629 78.0304 17.8056C78.5559 17.9808 78.9688 18.1276 79.2702 18.2461L79.2702 18.2461L79.2737 18.2474C79.4999 18.3299 79.7169 18.436 79.921 18.5638C80.0578 18.6606 80.1752 18.7823 80.2671 18.9226L80.2671 18.9226C80.4136 19.1458 80.4916 19.407 80.4915 19.6739C80.49 20.0855 80.4131 20.3854 80.2781 20.59C80.1566 20.774 79.9489 20.88 79.6134 20.88H78.3406C78.0339 20.8717 77.8251 20.7704 77.6882 20.5929C77.5459 20.4085 77.463 20.119 77.463 19.7005V19.0675L88.9586 22.958C88.9586 22.9578 88.9587 22.9575 88.9587 22.9572ZM88.9587 22.9572C88.836 23.8027 88.525 24.6098 88.0486 25.319L88.0461 25.3226L88.0461 25.3226C87.5591 26.0036 86.8871 26.5308 86.1098 26.8417M88.9587 22.9572L86.1098 26.8417M86.1098 26.8417C85.2817 27.1952 84.2116 27.3673 82.9073 27.3665M86.1098 26.8417L82.9073 27.3665M82.9073 27.3665H75.0411C73.1084 27.3665 71.5714 26.8554 70.4491 25.816C69.3225 24.7724 68.7686 23.2515 68.7654 21.2792L68.7654 21.279L68.7654 19.8691M82.9073 27.3665L68.7654 19.8691M84.879 4.95789L84.8758 4.80793C84.7538 4.81057 84.6327 4.78776 84.5201 4.74094C84.4707 4.71995 84.4179 4.6652 84.4179 4.49089C84.4179 4.32031 84.4692 4.25436 84.5285 4.22392C84.6451 4.16811 84.7731 4.14036 84.9023 4.14289L84.9023 4.14294L84.906 4.14292C85.3344 4.14066 85.7572 4.23969 86.14 4.43194L86.1401 4.432C86.3244 4.52433 86.4885 4.65226 86.623 4.8084C86.7575 4.96453 86.8597 5.14577 86.9237 5.34164L86.9234 5.34173L86.9269 5.35043C86.962 5.43871 86.9977 5.54206 87.0338 5.65872L87.0342 5.66007C87.0656 5.75787 87.082 5.85982 87.0831 5.96252L87.083 5.96252L87.0832 5.96791C87.0853 6.01335 87.0779 6.05873 87.0615 6.10113C87.045 6.14353 87.0199 6.18203 86.9877 6.21415C86.9555 6.24628 86.9169 6.27132 86.8745 6.28768C86.832 6.30403 86.7866 6.31134 86.7412 6.30913L86.7412 6.30895H86.7339C86.6405 6.30895 86.5815 6.2912 86.5454 6.26942C86.5125 6.24959 86.4896 6.22126 86.4758 6.17658C86.4279 6.0208 86.3725 5.84614 86.3073 5.65907L86.3073 5.65906L86.3063 5.6562C86.2239 5.43452 86.0866 5.23742 85.9072 5.0834C85.6876 4.88664 85.3298 4.80789 84.879 4.80789V4.95789Z" fill="#6D94F0" stroke="white" stroke-width="0.3" stroke-miterlimit="10"/>
<path d="M94.642 13.7029C95.2319 12.1266 95.7703 10.8861 96.2574 9.98411C96.7717 9.03169 97.3191 8.31534 97.9033 7.84558C98.4778 7.37999 99.1718 7.08559 99.9058 6.9961L99.907 6.99596C100.796 6.89442 101.69 6.84794 102.585 6.8568C103.642 6.85683 104.464 6.92594 105.044 7.06841C105.345 7.14217 105.593 7.26667 105.779 7.44895C105.966 7.6324 106.081 7.86601 106.127 8.1421L106.128 8.14356C106.214 8.68498 106.047 9.45187 105.661 10.4252C105.274 11.4016 104.653 12.723 103.798 14.3876L103.798 14.3877C103.15 15.6473 102.48 16.8693 101.786 18.0535C101.099 19.2245 100.333 20.3465 99.491 21.4114C99.4715 23.7708 99.4116 25.6329 99.3111 26.9962C99.2098 28.3707 98.9909 29.4188 98.6447 30.1269M94.642 13.7029L90.6147 30.1267C90.9589 30.8407 91.46 31.3049 92.1212 31.4944C92.7527 31.6754 93.5908 31.7635 94.6298 31.7635C95.671 31.7635 96.5093 31.6754 97.1385 31.4944C97.7973 31.3048 98.2982 30.8406 98.6447 30.1269M94.642 13.7029C94.0518 12.13 93.5144 10.8919 93.0297 9.99143C92.5169 9.03887 91.9697 8.32241 91.3846 7.85259C90.8098 7.38772 90.1162 7.09346 89.3824 7.00326L89.3824 7.00326L89.3811 7.00311C88.4922 6.90163 87.5978 6.85516 86.7031 6.86395C85.6463 6.86557 84.8241 6.9347 84.2431 7.07546C83.942 7.14838 83.6935 7.27248 83.5077 7.45491C83.3206 7.6385 83.2058 7.87267 83.1595 8.14956L83.1595 8.1499C83.0706 8.68891 83.2327 9.45469 83.6121 10.428C83.993 11.4052 84.6189 12.7258 85.4876 14.3878C86.1542 15.7019 86.8306 16.9467 87.5166 18.1222L94.642 13.7029ZM98.6447 30.1269C98.6447 30.127 98.6447 30.127 98.6446 30.1271L98.5099 30.0612L98.6448 30.1267C98.6448 30.1268 98.6448 30.1268 98.6447 30.1269ZM89.7685 21.3851C89.7796 21.3988 89.7908 21.4125 89.802 21.4261L89.9181 21.3312L89.7681 21.3323C89.7682 21.3499 89.7684 21.3675 89.7685 21.3851ZM89.6012 8.57991L89.5819 8.57468H89.5725C89.5173 8.56271 89.4678 8.53184 89.4328 8.48722C89.3955 8.43968 89.3772 8.37994 89.3815 8.31966L89.3819 8.31969V8.30891C89.3819 8.16846 89.4129 8.09114 89.4487 8.04997C89.4807 8.01323 89.536 7.98309 89.6427 7.9824C89.7375 7.98769 89.8303 8.01115 89.9162 8.05153L89.9162 8.05157L89.9196 8.05307C90.0357 8.10415 90.144 8.17129 90.2413 8.25253L90.2414 8.25257C90.3408 8.33546 90.4304 8.42947 90.5084 8.53276L90.5084 8.53278L90.5104 8.53531C90.565 8.60447 90.5955 8.68959 90.5973 8.77769L90.5973 8.77839C90.5994 8.86304 90.5723 8.94579 90.5207 9.01282C90.4955 9.04125 90.4642 9.06362 90.429 9.07822C90.3929 9.09324 90.3537 9.09963 90.3147 9.09686L90.3059 9.09624L90.2972 9.09664C90.2446 9.09907 90.1926 9.08629 90.1471 9.05983C90.1023 9.03372 90.0659 8.99538 90.0421 8.94932C89.9999 8.85995 89.9389 8.78074 89.8633 8.7171C89.7869 8.65285 89.6975 8.60603 89.6012 8.57991ZM103.68 8.57989L103.661 8.57468H103.652C103.598 8.56225 103.55 8.5317 103.516 8.48794C103.479 8.44108 103.461 8.38234 103.464 8.32286L103.465 8.32288L103.464 8.3133C103.464 8.17299 103.495 8.09591 103.531 8.0549C103.563 8.01818 103.619 7.98787 103.726 7.98716C103.821 7.99259 103.913 8.01605 103.999 8.05628L103.999 8.05633L104.002 8.05784C104.118 8.10891 104.227 8.17606 104.324 8.2573L104.324 8.25763C104.424 8.34004 104.513 8.43386 104.591 8.53716L104.591 8.53719L104.593 8.54008C104.648 8.60923 104.678 8.69435 104.68 8.78246L104.68 8.78316C104.682 8.86798 104.655 8.9509 104.603 9.01801C104.578 9.04668 104.547 9.06933 104.512 9.08424C104.476 9.09952 104.437 9.10626 104.398 9.1039L104.39 9.10339L104.381 9.10384C104.328 9.10666 104.275 9.09361 104.229 9.06633C104.183 9.03913 104.146 8.999 104.123 8.95099C104.081 8.86083 104.019 8.78096 103.943 8.71691C103.866 8.65273 103.776 8.60598 103.68 8.57989Z" fill="#6D94F0" stroke="white" stroke-width="0.3" stroke-miterlimit="10"/>
<path d="M35.3861 51.1706L35.3861 51.1706C35.2635 51.9674 35.0456 52.5943 34.7216 53.0375C34.4002 53.4795 33.934 53.7948 33.4042 53.9284L33.4017 53.929L33.4017 53.929C32.7362 54.085 32.0536 54.156 31.3702 54.1402C30.3851 54.1401 29.6004 54.0477 29.0243 53.8562C28.4131 53.6531 27.9755 53.1513 27.6977 52.3931C27.422 51.6404 27.2549 50.527 27.1895 49.0637C27.1243 47.6014 27.0921 45.6034 27.0929 43.0706C27.0929 43.0706 27.0929 43.0706 27.0929 43.0706L27.0929 31.5167C27.0839 31.1529 27.1256 30.7895 27.2168 30.4372L27.2178 30.4335L27.2178 30.4335C27.3067 30.1231 27.4917 29.8488 27.7463 29.6501L27.75 29.6472L27.75 29.6473C28.0508 29.4273 28.3987 29.2807 28.7662 29.219C29.3058 29.1237 29.8535 29.0811 30.4014 29.0918H36.7735C38.8685 29.0918 40.5818 29.2537 41.9094 29.581C43.2396 29.9089 44.2879 30.451 45.0431 31.2152L45.0432 31.2154C45.7952 31.9788 46.3055 32.9707 46.579 34.1837C46.8507 35.3886 46.9849 36.865 46.9841 38.6103L35.3861 51.1706ZM35.3861 51.1706L35.3865 51.1679M35.3861 51.1706L35.3865 51.1679M35.3865 51.1679C35.5221 50.1677 35.6011 49.1606 35.6233 48.1516L37.1057 48.1527H37.106C38.9984 48.1511 40.5816 47.9981 41.8527 47.691C43.1284 47.3828 44.1528 46.8557 44.9165 46.1034L44.9168 46.1031M35.3865 51.1679L44.9168 46.1031M44.9168 46.1031C45.6782 45.3499 46.2117 44.3583 46.5221 43.1361C46.8311 41.9192 46.9841 40.4095 46.9841 38.6104L44.9168 46.1031ZM35.6535 41.7746V35.7582L36.0551 35.7582L36.0557 35.7582C36.866 35.7551 37.3785 35.967 37.6511 36.3472C37.9357 36.7443 38.0935 37.4574 38.0935 38.5233L38.0935 38.7723L38.0935 38.7727C38.0967 39.9538 37.9485 40.7368 37.6777 41.1585C37.422 41.5568 36.914 41.7815 36.0873 41.7817L35.6535 41.7746ZM42.6208 32.021H42.7211L42.1085 31.7351C41.9791 31.6747 41.8608 31.5932 41.7584 31.4938C41.7312 31.4649 41.7191 31.4343 41.7191 31.3945C41.7191 31.3491 41.7353 31.2839 41.7832 31.1954C41.8084 31.1508 41.8452 31.1138 41.8897 31.0885C41.9344 31.0629 41.9853 31.0501 42.0368 31.0512L42.0368 31.0513L42.0413 31.0513C42.1818 31.0503 42.3214 31.0747 42.4532 31.1233C42.8029 31.285 43.13 31.4915 43.4265 31.7375L43.4265 31.7375L43.4283 31.7389C43.7514 31.9987 44.0261 32.3136 44.2395 32.669L44.2451 32.6782L44.2519 32.6866C44.2878 32.7307 44.3136 32.7822 44.3274 32.8374C44.341 32.8916 44.3426 32.9482 44.3323 33.0031C44.3231 33.0401 44.3066 33.0749 44.2837 33.1054C44.2609 33.1358 44.2322 33.1613 44.1993 33.1804C44.1217 33.2191 44.0329 33.2291 43.9486 33.2085L43.9469 33.2081C43.8944 33.1959 43.8451 33.1728 43.8022 33.1402C43.7593 33.1077 43.7238 33.0664 43.698 33.0191L43.6983 33.019L43.6934 33.0112C43.4677 32.6514 43.1069 32.3225 42.6208 32.021Z" fill="#6D94F0" stroke="white" stroke-width="0.3" stroke-miterlimit="10"/>
<mask id="path-7-outside-1_131_1548" maskUnits="userSpaceOnUse" x="40.8518" y="28.7092" width="23" height="27" fill="black">
<rect fill="white" x="40.8518" y="28.7092" width="23" height="27"/>
<path d="M50.0497 49.9128C49.9021 50.7745 49.6846 51.6228 49.3992 52.4491C49.1673 53.067 48.8854 53.538 48.5534 53.862C48.2084 54.191 47.7695 54.4042 47.2977 54.472C46.6667 54.5641 46.0293 54.606 45.3916 54.5971C44.8331 54.6033 44.2751 54.5614 43.7238 54.472C43.2928 54.4085 42.8914 54.2153 42.573 53.918C42.2775 53.6305 42.0742 53.2195 41.963 52.685C41.8518 52.1505 41.824 51.4206 41.8796 50.4954C41.9352 49.5709 42.0742 48.4252 42.2966 47.0584C42.5189 45.6916 42.8311 44.0475 43.2329 42.1263C43.638 40.1853 44.0029 38.5317 44.3278 37.1657C44.591 35.9997 44.9285 34.8517 45.338 33.7287C45.6914 32.8051 46.0667 32.0796 46.4638 31.5522C46.8395 31.0441 47.3292 30.6312 47.8934 30.3466C48.5023 30.0541 49.1596 29.8756 49.8329 29.82C50.5715 29.7462 51.4491 29.7092 52.4657 29.7092C53.4823 29.7092 54.3599 29.7462 55.0985 29.82C55.7721 29.8754 56.4299 30.0539 57.0391 30.3466C57.6032 30.6314 58.0928 31.0443 58.4687 31.5522C58.8658 32.0788 59.2399 32.8039 59.5909 33.7275C60.0025 34.8512 60.3451 35.999 60.6167 37.1645C60.9487 38.5321 61.3184 40.1857 61.7258 42.1252C62.1324 44.0464 62.4501 45.6908 62.6788 47.0584C62.8826 48.1952 63.0214 49.3428 63.0946 50.4954C63.1415 51.419 63.1093 52.1489 62.9981 52.685C62.8869 53.2211 62.6773 53.6329 62.3691 53.9204C62.0444 54.2161 61.6394 54.4089 61.2052 54.4744C60.6511 54.5643 60.0903 54.6061 59.529 54.5995C58.8889 54.609 58.2491 54.5671 57.6157 54.4744C57.1471 54.4053 56.7116 54.1922 56.3696 53.8644C56.036 53.542 55.7581 53.071 55.5357 52.4515C55.2601 51.6232 55.047 50.7754 54.8983 49.9152C54.5278 49.9343 54.1359 49.9426 53.7201 49.9426H51.1588C50.7704 49.9402 50.4011 49.9319 50.0497 49.9128ZM52.3787 43.5667H53.1126C53.3437 43.5667 53.5792 43.5758 53.819 43.5941C53.5974 42.263 53.4175 41.2281 53.2793 40.4895C53.1411 39.7509 53.0244 39.2064 52.9327 38.855C52.8409 38.5035 52.7563 38.2915 52.6837 38.2176C52.6557 38.1854 52.6216 38.159 52.5833 38.14C52.5451 38.121 52.5035 38.1097 52.4609 38.1068C52.414 38.1074 52.3678 38.1175 52.325 38.1365C52.2822 38.1556 52.2437 38.1832 52.2119 38.2176C52.1381 38.2915 52.0551 38.4992 51.9629 38.8407C51.8708 39.1822 51.7596 39.7215 51.6294 40.4585C51.5007 41.1987 51.3256 42.2336 51.104 43.5631L52.3787 43.5667ZM55.8979 32.342C56.0745 32.3403 56.2498 32.3738 56.4134 32.4405C56.577 32.5071 56.7258 32.6057 56.8509 32.7304C57.1178 32.9885 57.2794 33.2268 57.3358 33.4452C57.3484 33.5113 57.3765 33.5735 57.418 33.6265C57.4594 33.6796 57.5129 33.722 57.574 33.7502C57.6432 33.7773 57.7174 33.789 57.7915 33.7842C57.8656 33.7795 57.9378 33.7585 58.0029 33.7228C58.067 33.6973 58.1236 33.6559 58.1674 33.6026C58.2111 33.5492 58.2406 33.4857 58.2531 33.4178C58.2726 33.3064 58.2627 33.1919 58.2245 33.0854C58.0515 32.591 57.7447 32.1542 57.3382 31.8238C56.9334 31.5133 56.434 31.3517 55.9241 31.3664C55.7707 31.3639 55.619 31.3973 55.4809 31.464C55.351 31.5284 55.2867 31.663 55.2867 31.8655C55.2867 32.068 55.351 32.1991 55.4809 32.2539C55.6124 32.3114 55.7543 32.3414 55.8979 32.342V32.342Z"/>
</mask>
<path d="M50.0497 49.9128C49.9021 50.7745 49.6846 51.6228 49.3992 52.4491C49.1673 53.067 48.8854 53.538 48.5534 53.862C48.2084 54.191 47.7695 54.4042 47.2977 54.472C46.6667 54.5641 46.0293 54.606 45.3916 54.5971C44.8331 54.6033 44.2751 54.5614 43.7238 54.472C43.2928 54.4085 42.8914 54.2153 42.573 53.918C42.2775 53.6305 42.0742 53.2195 41.963 52.685C41.8518 52.1505 41.824 51.4206 41.8796 50.4954C41.9352 49.5709 42.0742 48.4252 42.2966 47.0584C42.5189 45.6916 42.8311 44.0475 43.2329 42.1263C43.638 40.1853 44.0029 38.5317 44.3278 37.1657C44.591 35.9997 44.9285 34.8517 45.338 33.7287C45.6914 32.8051 46.0667 32.0796 46.4638 31.5522C46.8395 31.0441 47.3292 30.6312 47.8934 30.3466C48.5023 30.0541 49.1596 29.8756 49.8329 29.82C50.5715 29.7462 51.4491 29.7092 52.4657 29.7092C53.4823 29.7092 54.3599 29.7462 55.0985 29.82C55.7721 29.8754 56.4299 30.0539 57.0391 30.3466C57.6032 30.6314 58.0928 31.0443 58.4687 31.5522C58.8658 32.0788 59.2399 32.8039 59.5909 33.7275C60.0025 34.8512 60.3451 35.999 60.6167 37.1645C60.9487 38.5321 61.3184 40.1857 61.7258 42.1252C62.1324 44.0464 62.4501 45.6908 62.6788 47.0584C62.8826 48.1952 63.0214 49.3428 63.0946 50.4954C63.1415 51.419 63.1093 52.1489 62.9981 52.685C62.8869 53.2211 62.6773 53.6329 62.3691 53.9204C62.0444 54.2161 61.6394 54.4089 61.2052 54.4744C60.6511 54.5643 60.0903 54.6061 59.529 54.5995C58.8889 54.609 58.2491 54.5671 57.6157 54.4744C57.1471 54.4053 56.7116 54.1922 56.3696 53.8644C56.036 53.542 55.7581 53.071 55.5357 52.4515C55.2601 51.6232 55.047 50.7754 54.8983 49.9152C54.5278 49.9343 54.1359 49.9426 53.7201 49.9426H51.1588C50.7704 49.9402 50.4011 49.9319 50.0497 49.9128ZM52.3787 43.5667H53.1126C53.3437 43.5667 53.5792 43.5758 53.819 43.5941C53.5974 42.263 53.4175 41.2281 53.2793 40.4895C53.1411 39.7509 53.0244 39.2064 52.9327 38.855C52.8409 38.5035 52.7563 38.2915 52.6837 38.2176C52.6557 38.1854 52.6216 38.159 52.5833 38.14C52.5451 38.121 52.5035 38.1097 52.4609 38.1068C52.414 38.1074 52.3678 38.1175 52.325 38.1365C52.2822 38.1556 52.2437 38.1832 52.2119 38.2176C52.1381 38.2915 52.0551 38.4992 51.9629 38.8407C51.8708 39.1822 51.7596 39.7215 51.6294 40.4585C51.5007 41.1987 51.3256 42.2336 51.104 43.5631L52.3787 43.5667ZM55.8979 32.342C56.0745 32.3403 56.2498 32.3738 56.4134 32.4405C56.577 32.5071 56.7258 32.6057 56.8509 32.7304C57.1178 32.9885 57.2794 33.2268 57.3358 33.4452C57.3484 33.5113 57.3765 33.5735 57.418 33.6265C57.4594 33.6796 57.5129 33.722 57.574 33.7502C57.6432 33.7773 57.7174 33.789 57.7915 33.7842C57.8656 33.7795 57.9378 33.7585 58.0029 33.7228C58.067 33.6973 58.1236 33.6559 58.1674 33.6026C58.2111 33.5492 58.2406 33.4857 58.2531 33.4178C58.2726 33.3064 58.2627 33.1919 58.2245 33.0854C58.0515 32.591 57.7447 32.1542 57.3382 31.8238C56.9334 31.5133 56.434 31.3517 55.9241 31.3664C55.7707 31.3639 55.619 31.3973 55.4809 31.464C55.351 31.5284 55.2867 31.663 55.2867 31.8655C55.2867 32.068 55.351 32.1991 55.4809 32.2539C55.6124 32.3114 55.7543 32.3414 55.8979 32.342V32.342Z" fill="#6D94F0"/>
<path d="M50.0497 49.9128L50.0659 49.6132L49.7991 49.5988L49.754 49.8622L50.0497 49.9128ZM49.3992 52.4491L49.6802 52.5546L49.6828 52.5471L49.3992 52.4491ZM48.5534 53.862L48.7604 54.0792L48.7629 54.0767L48.5534 53.862ZM47.2977 54.472L47.255 54.175L47.2544 54.1751L47.2977 54.472ZM45.3916 54.5971L45.3958 54.297L45.3883 54.2971L45.3916 54.5971ZM43.7238 54.472L43.7718 54.1758L43.7675 54.1752L43.7238 54.472ZM42.573 53.918L42.3637 54.1331L42.3682 54.1373L42.573 53.918ZM41.8796 50.4954L41.5801 50.4774L41.5801 50.4774L41.8796 50.4954ZM43.2329 42.1263L43.5266 42.1878L43.5266 42.1876L43.2329 42.1263ZM44.3278 37.1657L44.6196 37.2351L44.6204 37.2318L44.3278 37.1657ZM45.338 33.7287L45.0578 33.6215L45.0562 33.626L45.338 33.7287ZM46.4638 31.5522L46.7035 31.7327L46.705 31.7306L46.4638 31.5522ZM47.8934 30.3466L47.7635 30.0761L47.7583 30.0787L47.8934 30.3466ZM49.8329 29.82L49.8575 30.119L49.8627 30.1185L49.8329 29.82ZM55.0985 29.82L55.0686 30.1186L55.0739 30.119L55.0985 29.82ZM57.0391 30.3466L57.1744 30.0787L57.169 30.0762L57.0391 30.3466ZM58.4687 31.5522L58.2276 31.7307L58.2292 31.7328L58.4687 31.5522ZM59.5909 33.7275L59.8727 33.6244L59.8714 33.621L59.5909 33.7275ZM60.6167 37.1645L60.3245 37.2326L60.3251 37.2353L60.6167 37.1645ZM61.7258 42.1252L61.4322 42.1868L61.4323 42.1873L61.7258 42.1252ZM62.6788 47.0584L62.3829 47.1079L62.3835 47.1113L62.6788 47.0584ZM63.0946 50.4954L63.3943 50.4802L63.394 50.4763L63.0946 50.4954ZM62.3691 53.9204L62.5711 54.1422L62.5738 54.1398L62.3691 53.9204ZM61.2052 54.4744L61.1604 54.1777L61.1571 54.1782L61.2052 54.4744ZM59.529 54.5995L59.5326 54.2994L59.5245 54.2995L59.529 54.5995ZM57.6157 54.4744L57.572 54.7712L57.5723 54.7712L57.6157 54.4744ZM56.3696 53.8644L56.1611 54.0801L56.162 54.081L56.3696 53.8644ZM55.5357 52.4515L55.251 52.5463L55.2533 52.5529L55.5357 52.4515ZM54.8983 49.9152L55.194 49.8641L55.1486 49.6019L54.8829 49.6156L54.8983 49.9152ZM51.1588 49.9426L51.1569 50.2426H51.1588V49.9426ZM52.3787 43.5667L52.3779 43.8667H52.3787V43.5667ZM53.819 43.5941L53.7962 43.8932L54.1778 43.9222L54.1149 43.5448L53.819 43.5941ZM52.6837 38.2176L52.4572 38.4144L52.4633 38.4214L52.4698 38.428L52.6837 38.2176ZM52.4609 38.1068L52.4811 37.8075L52.4693 37.8067L52.4574 37.8069L52.4609 38.1068ZM52.2119 38.2176L52.4242 38.4299L52.4324 38.4211L52.2119 38.2176ZM51.6294 40.4585L51.3339 40.4063L51.3338 40.4071L51.6294 40.4585ZM51.104 43.5631L50.8081 43.5138L50.75 43.8621L51.1031 43.8631L51.104 43.5631ZM56.8509 32.7304L56.6391 32.9429L56.6423 32.946L56.8509 32.7304ZM57.3358 33.4452L57.6305 33.3891L57.6287 33.3796L57.6263 33.3702L57.3358 33.4452ZM57.574 33.7502L57.4483 34.0226L57.4562 34.0262L57.4643 34.0294L57.574 33.7502ZM58.0029 33.7228L57.8921 33.444L57.8748 33.4509L57.8585 33.4598L58.0029 33.7228ZM58.2531 33.4178L58.5482 33.472L58.5486 33.4695L58.2531 33.4178ZM58.2245 33.0854L57.9413 33.1845L57.9421 33.1868L58.2245 33.0854ZM57.3382 31.8238L57.5275 31.5909L57.5208 31.5858L57.3382 31.8238ZM55.9241 31.3664L55.9192 31.6666L55.9327 31.6662L55.9241 31.3664ZM55.4809 31.464L55.3503 31.1939L55.3477 31.1952L55.4809 31.464ZM55.4809 32.2539L55.6011 31.979L55.5975 31.9775L55.4809 32.2539ZM49.754 49.8622C49.6092 50.7078 49.3957 51.5403 49.1156 52.3512L49.6828 52.5471C49.9735 51.7053 50.1951 50.8412 50.3454 49.9634L49.754 49.8622ZM49.1183 52.3437C48.8958 52.9366 48.6339 53.3642 48.3438 53.6473L48.7629 54.0767C49.1368 53.7118 49.4388 53.1975 49.6801 52.5545L49.1183 52.3437ZM48.3463 53.6449C48.0465 53.9308 47.6651 54.1161 47.255 54.175L47.3404 54.7689C47.8739 54.6922 48.3703 54.4511 48.7604 54.0791L48.3463 53.6449ZM47.2544 54.1751C46.6391 54.265 46.0176 54.3058 45.3958 54.2971L45.3874 54.897C46.041 54.9062 46.6943 54.8633 47.3411 54.7688L47.2544 54.1751ZM45.3883 54.2971C44.847 54.3031 44.3062 54.2625 43.7718 54.1759L43.6757 54.7681C44.244 54.8603 44.8192 54.9034 45.3949 54.8971L45.3883 54.2971ZM43.7675 54.1752C43.3968 54.1206 43.0516 53.9544 42.7777 53.6987L42.3682 54.1373C42.7312 54.4762 43.1888 54.6964 43.6801 54.7688L43.7675 54.1752ZM42.7822 53.703C42.5415 53.4688 42.3596 53.1185 42.2567 52.6239L41.6693 52.7461C41.7888 53.3205 42.0135 53.7922 42.3637 54.133L42.7822 53.703ZM42.2567 52.6239C42.1534 52.1273 42.1241 51.4278 42.1791 50.5134L41.5801 50.4774C41.5239 51.4135 41.5502 52.1738 41.6693 52.7461L42.2567 52.6239ZM42.1791 50.5134C42.2338 49.6026 42.3712 48.4678 42.5927 47.1066L42.0005 47.0102C41.7772 48.3827 41.6366 49.5392 41.5801 50.4774L42.1791 50.5134ZM42.5927 47.1066C42.8141 45.7456 43.1253 44.1062 43.5266 42.1878L42.9393 42.0649C42.5369 43.9889 42.2238 45.6376 42.0005 47.0102L42.5927 47.1066ZM43.5266 42.1876C43.9313 40.2483 44.2956 38.5976 44.6196 37.2351L44.0359 37.0963C43.7102 38.4659 43.3447 40.1223 42.9393 42.0651L43.5266 42.1876ZM44.6204 37.2318C44.8809 36.0782 45.2147 34.9425 45.6198 33.8315L45.0562 33.626C44.6423 34.7609 44.3012 35.9212 44.0351 37.0996L44.6204 37.2318ZM45.6182 33.8359C45.9661 32.9268 46.3294 32.2295 46.7035 31.7327L46.2241 31.3717C45.804 31.9297 45.4168 32.6833 45.0578 33.6215L45.6182 33.8359ZM46.705 31.7306C47.0529 31.2602 47.5062 30.8779 48.0285 30.6144L47.7583 30.0787C47.1522 30.3845 46.6262 30.828 46.2226 31.3738L46.705 31.7306ZM48.0233 30.617C48.5992 30.3404 49.2208 30.1716 49.8575 30.119L49.8082 29.521C49.0984 29.5796 48.4054 29.7678 47.7635 30.0762L48.0233 30.617ZM49.8627 30.1185C50.5885 30.0459 51.4557 30.0092 52.4657 30.0092V29.4092C51.4425 29.4092 50.5544 29.4464 49.803 29.5215L49.8627 30.1185ZM52.4657 30.0092C53.4756 30.0092 54.3428 30.0459 55.0686 30.1185L55.1283 29.5215C54.3769 29.4464 53.4889 29.4092 52.4657 29.4092V30.0092ZM55.0739 30.119C55.711 30.1714 56.333 30.3402 56.9092 30.617L57.169 30.0762C56.5267 29.7676 55.8333 29.5795 55.1231 29.521L55.0739 30.119ZM56.9039 30.6144C57.4262 30.8781 57.8795 31.2604 58.2276 31.7307L58.7098 31.3737C58.306 30.8282 57.7802 30.3848 57.1744 30.0788L56.9039 30.6144ZM58.2292 31.7328C58.603 32.2285 58.9651 32.9252 59.3105 33.8341L59.8714 33.621C59.5147 32.6826 59.1286 31.929 58.7082 31.3716L58.2292 31.7328ZM59.3092 33.8307C59.7166 34.9429 60.0557 36.079 60.3245 37.2326L60.9088 37.0964C60.6345 35.919 60.2884 34.7595 59.8726 33.6244L59.3092 33.8307ZM60.3251 37.2353C60.6562 38.5989 61.0252 40.2493 61.4322 42.1868L62.0194 42.0635C61.6115 40.1221 61.2411 38.4653 60.9082 37.0937L60.3251 37.2353ZM61.4323 42.1873C61.8384 44.1059 62.1551 45.7458 62.383 47.1079L62.9747 47.0089C62.7451 45.6357 62.4265 43.9869 62.0193 42.063L61.4323 42.1873ZM62.3835 47.1113C62.5852 48.2369 62.7227 49.3731 62.7952 50.5144L63.394 50.4763C63.32 49.3124 63.1799 48.1535 62.9741 47.0055L62.3835 47.1113ZM62.795 50.5106C62.8413 51.4236 62.808 52.1243 62.7044 52.6241L63.2919 52.7459C63.4106 52.1735 63.4416 51.4144 63.3942 50.4802L62.795 50.5106ZM62.7044 52.6241C62.602 53.1175 62.4154 53.4669 62.1644 53.7011L62.5738 54.1398C62.9391 53.7989 63.1718 53.3247 63.2919 52.7459L62.7044 52.6241ZM62.1671 53.6986C61.8863 53.9543 61.536 54.1211 61.1604 54.1777L61.2499 54.771C61.7428 54.6967 62.2026 54.4778 62.5711 54.1422L62.1671 53.6986ZM61.1571 54.1782C60.6201 54.2654 60.0766 54.3059 59.5326 54.2995L59.5254 54.8994C60.104 54.9063 60.6821 54.8632 61.2532 54.7705L61.1571 54.1782ZM59.5245 54.2995C58.9005 54.3088 58.2767 54.268 57.6592 54.1775L57.5723 54.7712C58.2215 54.8663 58.8773 54.9092 59.5335 54.8994L59.5245 54.2995ZM57.6595 54.1776C57.2525 54.1176 56.8742 53.9325 56.5772 53.6478L56.162 54.081C56.549 54.4519 57.0418 54.6931 57.572 54.7712L57.6595 54.1776ZM56.5781 53.6487C56.2885 53.3687 56.031 52.9433 55.8181 52.3502L55.2533 52.5529C55.4852 53.1987 55.7836 53.7152 56.1611 54.0801L56.5781 53.6487ZM55.8204 52.3568C55.5495 51.5427 55.3401 50.7095 55.194 49.8641L54.6027 49.9663C54.754 50.8413 54.9707 51.7037 55.251 52.5462L55.8204 52.3568ZM54.8829 49.6156C54.5187 49.6343 54.132 49.6426 53.7201 49.6426V50.2426C54.1398 50.2426 54.537 50.2342 54.9138 50.2148L54.8829 49.6156ZM53.7201 49.6426H51.1588V50.2426H53.7201V49.6426ZM51.1606 49.6426C50.7752 49.6402 50.411 49.632 50.0659 49.6132L50.0334 50.2124C50.3913 50.2318 50.7657 50.2402 51.1569 50.2426L51.1606 49.6426ZM52.3787 43.8667H53.1126V43.2667H52.3787V43.8667ZM53.1126 43.8667C53.3358 43.8667 53.5636 43.8755 53.7962 43.8932L53.8418 43.2949C53.5947 43.2761 53.3516 43.2667 53.1126 43.2667V43.8667ZM54.1149 43.5448C53.8932 42.213 53.713 41.1758 53.5742 40.4343L52.9845 40.5446C53.1221 41.2803 53.3016 42.3129 53.5231 43.6433L54.1149 43.5448ZM53.5742 40.4343C53.4356 39.6936 53.3174 39.1409 53.2229 38.7792L52.6424 38.9308C52.7314 39.2719 52.8467 39.8082 52.9845 40.5446L53.5742 40.4343ZM53.2229 38.7792C53.1755 38.5974 53.1279 38.444 53.0803 38.3226C53.037 38.2123 52.9797 38.0907 52.8975 38.0072L52.4698 38.428C52.4603 38.4184 52.4817 38.4398 52.5218 38.5419C52.5575 38.6328 52.5981 38.7612 52.6424 38.9308L53.2229 38.7792ZM52.9102 38.0209C52.8562 37.9588 52.7906 37.908 52.7169 37.8714L52.4498 38.4086C52.4526 38.41 52.4551 38.412 52.4572 38.4144L52.9102 38.0209ZM52.7169 37.8714C52.6433 37.8348 52.5632 37.8131 52.4811 37.8075L52.4407 38.4062C52.4438 38.4064 52.4469 38.4072 52.4498 38.4086L52.7169 37.8714ZM52.4574 37.8069C52.3697 37.8079 52.2831 37.8268 52.203 37.8625L52.4469 38.4106C52.4524 38.4082 52.4584 38.4069 52.4644 38.4068L52.4574 37.8069ZM52.203 37.8625C52.1229 37.8981 52.0509 37.9497 51.9914 38.0142L52.4324 38.4211C52.4365 38.4166 52.4414 38.4131 52.4469 38.4106L52.203 37.8625ZM51.9998 38.0055C51.9165 38.0888 51.859 38.2092 51.8157 38.3175C51.7681 38.4365 51.7209 38.5862 51.6733 38.7626L52.2526 38.9188C52.2971 38.7537 52.3374 38.6288 52.3729 38.5401C52.4126 38.4407 52.4335 38.4203 52.424 38.4298L51.9998 38.0055ZM51.6733 38.7626C51.5775 39.1177 51.4644 39.6679 51.3339 40.4063L51.9248 40.5107C52.0548 39.775 52.1641 39.2467 52.2526 38.9188L51.6733 38.7626ZM51.3338 40.4071C51.205 41.1484 51.0297 42.184 50.8081 43.5138L51.3999 43.6124C51.6215 42.2831 51.7964 41.2491 51.9249 40.5099L51.3338 40.4071ZM51.1031 43.8631L52.3779 43.8667L52.3795 43.2667L51.1048 43.2631L51.1031 43.8631ZM55.9008 32.642C56.0377 32.6407 56.1734 32.6666 56.3002 32.7183L56.5266 32.1626C56.3261 32.0809 56.1114 32.04 55.8949 32.0421L55.9008 32.642ZM56.3002 32.7183C56.427 32.7699 56.5422 32.8463 56.6392 32.9429L57.0627 32.5179C56.9093 32.3651 56.7271 32.2443 56.5266 32.1626L56.3002 32.7183ZM56.6423 32.946C56.8925 33.188 57.009 33.3796 57.0453 33.5202L57.6263 33.3702C57.5498 33.074 57.3431 32.7891 57.0595 32.5148L56.6423 32.946ZM57.0411 33.5013C57.0626 33.6143 57.1107 33.7206 57.1816 33.8112L57.6544 33.4419C57.6423 33.4264 57.6342 33.4084 57.6305 33.3891L57.0411 33.5013ZM57.1816 33.8112C57.2524 33.9019 57.3439 33.9744 57.4483 34.0226L57.6997 33.4778C57.682 33.4696 57.6664 33.4573 57.6544 33.4419L57.1816 33.8112ZM57.4643 34.0294C57.5744 34.0727 57.6926 34.0912 57.8107 34.0836L57.7724 33.4849C57.7422 33.4868 57.7119 33.482 57.6838 33.471L57.4643 34.0294ZM57.8107 34.0836C57.9287 34.0761 58.0436 34.0427 58.1473 33.9858L57.8585 33.4598C57.832 33.4744 57.8026 33.4829 57.7724 33.4849L57.8107 34.0836ZM58.1138 34.0015C58.2251 33.9573 58.3233 33.8855 58.3993 33.7929L57.9354 33.4123C57.9239 33.4264 57.909 33.4373 57.8921 33.444L58.1138 34.0015ZM58.3993 33.7929C58.4753 33.7002 58.5265 33.5898 58.5482 33.472L57.958 33.3636C57.9547 33.3815 57.947 33.3983 57.9354 33.4123L58.3993 33.7929ZM58.5486 33.4695C58.577 33.3068 58.5627 33.1395 58.5069 32.9841L57.9421 33.1868C57.9628 33.2442 57.9681 33.306 57.9576 33.3662L58.5486 33.4695ZM58.5077 32.9863C58.3163 32.4395 57.977 31.9565 57.5274 31.591L57.1489 32.0566C57.5123 32.352 57.7867 32.7425 57.9413 33.1845L58.5077 32.9863ZM57.5208 31.5858C57.0613 31.2332 56.4944 31.0498 55.9154 31.0665L55.9327 31.6662C56.3737 31.6536 56.8055 31.7933 57.1555 32.0618L57.5208 31.5858ZM55.929 31.0664C55.7288 31.0631 55.5306 31.1068 55.3503 31.1939L55.6114 31.7341C55.7073 31.6878 55.8127 31.6646 55.9192 31.6663L55.929 31.0664ZM55.3477 31.1952C55.0748 31.3304 54.9867 31.6031 54.9867 31.8655H55.5867C55.5867 31.7937 55.5985 31.7575 55.6053 31.7433C55.6069 31.7399 55.6082 31.7379 55.609 31.7368C55.6097 31.7358 55.6101 31.7353 55.6102 31.7352C55.6103 31.7351 55.6104 31.735 55.6108 31.7348C55.6111 31.7345 55.6121 31.7338 55.6141 31.7329L55.3477 31.1952ZM54.9867 31.8655C54.9867 32.1238 55.0737 32.4077 55.3643 32.5303L55.5975 31.9775C55.597 31.9773 55.5996 31.9784 55.6028 31.9814C55.6058 31.9843 55.6056 31.9854 55.6037 31.9814C55.5987 31.9714 55.5867 31.938 55.5867 31.8655H54.9867ZM55.3607 32.5288C55.5297 32.6026 55.712 32.6412 55.8965 32.642L55.8992 32.042C55.7966 32.0416 55.6951 32.0201 55.6011 31.979L55.3607 32.5288Z" fill="white" mask="url(#path-7-outside-1_131_1548)"/>
<mask id="path-9-outside-2_131_1548" maskUnits="userSpaceOnUse" x="58.1714" y="28.6396" width="25" height="23" fill="black">
<rect fill="white" x="58.1714" y="28.6396" width="25" height="23"/>
<path d="M65.1508 51.2628C64.5204 51.2681 63.8903 51.2359 63.2638 51.1663C62.7854 51.1174 62.3237 50.9636 61.9116 50.7159C61.5154 50.4536 61.1995 50.0866 60.9991 49.6557C60.719 49.0501 60.5145 48.4123 60.3903 47.7567C60.1914 46.7724 60.0451 45.7782 59.9519 44.7784C59.8304 43.5871 59.7045 42.1464 59.5742 40.4563C59.444 38.7662 59.3427 37.3255 59.2705 36.1342C59.1966 34.9429 59.164 33.9501 59.1728 33.1559C59.1649 32.5188 59.222 31.8825 59.3431 31.2569C59.448 30.786 59.6144 30.4329 59.8423 30.1979C60.0787 29.9574 60.3861 29.7992 60.7191 29.7463C61.1523 29.6762 61.5908 29.6439 62.0296 29.6498C62.8087 29.6498 63.4214 29.7106 63.8678 29.8321C64.3141 29.9536 64.6632 30.2622 64.9149 30.7578C65.1667 31.2534 65.3533 31.9999 65.4749 32.9975C65.5964 33.995 65.7155 35.3626 65.8322 37.1004C65.945 38.854 66.0344 40.226 66.1003 41.2164C66.1662 42.2067 66.219 42.9533 66.2587 43.456C66.2992 43.9604 66.3274 44.2729 66.3433 44.3936C66.36 44.5127 66.3838 44.5759 66.4172 44.5759C66.4505 44.5759 66.4529 44.5151 66.4779 44.3936C66.503 44.2721 66.5339 43.96 66.5756 43.456C66.6173 42.9521 66.6721 42.2063 66.746 41.2164C66.8199 40.2264 66.9199 38.854 67.0498 37.1004C67.1796 35.3467 67.288 33.9958 67.4155 32.9975C67.543 31.9991 67.736 31.2534 67.9873 30.7578C68.2387 30.2622 68.5925 29.9536 69.0464 29.8321C70.2683 29.5891 71.526 29.5891 72.7479 29.8321C73.2021 29.9536 73.5552 30.2622 73.8069 30.7578C74.0587 31.2534 74.2497 31.9999 74.38 32.9975C74.5094 33.9958 74.6393 35.3634 74.7695 37.1004C74.8807 38.8476 74.976 40.2164 75.0554 41.2068C75.1349 42.1972 75.1916 42.9438 75.2258 43.4465C75.2663 43.9508 75.2945 44.2634 75.3104 44.3841C75.3271 44.5032 75.3509 44.5664 75.3842 44.5664C75.3993 44.5664 75.4196 44.5056 75.445 44.3841C75.4704 44.2626 75.503 43.95 75.5427 43.4465C75.5832 42.9438 75.6356 42.1972 75.6999 41.2068C75.7643 40.2164 75.8536 38.8444 75.968 37.0908C76.0808 35.3539 76.1999 33.9862 76.3254 32.9879C76.4509 31.9896 76.6375 31.243 76.8853 30.7482C77.1363 30.2527 77.4853 29.9441 77.9325 29.8226C78.3796 29.7011 78.9924 29.6403 79.7707 29.6403C80.2095 29.6345 80.6479 29.6668 81.0811 29.7368C81.4138 29.7899 81.7206 29.9481 81.9567 30.1883C82.1839 30.4266 82.3507 30.7796 82.4571 31.2474C82.5771 31.8731 82.6341 32.5093 82.6275 33.1464C82.6346 33.9406 82.602 34.9333 82.5298 36.1247C82.4575 37.316 82.3558 38.7567 82.2248 40.4468C82.0914 42.1384 81.9651 43.5807 81.846 44.7736C81.7522 45.7734 81.6058 46.7676 81.4076 47.7519C81.2827 48.4074 81.0783 49.0451 80.7988 49.6509C80.5995 50.0793 80.2879 50.4458 79.897 50.7112C79.4903 50.9603 79.0325 51.1142 78.5579 51.1615C77.9314 51.2311 77.3012 51.2633 76.6709 51.258C75.7949 51.2718 74.919 51.2232 74.05 51.1126C73.4074 51.015 72.9162 50.7715 72.5763 50.3824C72.2364 49.9932 71.9981 49.4087 71.8615 48.6287C71.7233 47.8496 71.5974 46.7774 71.4839 45.4122C71.3703 44.0469 71.2809 42.9747 71.2158 42.1956C71.1515 41.4165 71.0991 40.8359 71.0586 40.4539C71.0181 40.0719 70.9855 39.8336 70.9609 39.7391C70.9359 39.6414 70.9156 39.5938 70.9001 39.5938C70.8846 39.5938 70.8429 39.6414 70.8263 39.7391C70.8096 39.8368 70.7822 40.0763 70.7417 40.4539C70.7012 40.8316 70.6523 41.4165 70.5951 42.1956C70.538 42.9747 70.4534 44.0457 70.3402 45.4122C70.227 46.7786 70.1019 47.8472 69.9506 48.6287C69.7993 49.4103 69.5599 49.9916 69.2192 50.3824C68.8785 50.7731 68.3852 51.015 67.7586 51.1126C66.8941 51.225 66.0225 51.2752 65.1508 51.2628V51.2628ZM63.1053 30.9281C63.1134 31.0075 63.1382 31.0844 63.178 31.1535C63.2178 31.2227 63.2718 31.2827 63.3364 31.3296C63.4484 31.4486 63.6002 31.5224 63.7629 31.5369C63.8192 31.5403 63.8755 31.5315 63.928 31.5109C63.9805 31.4903 64.0278 31.4585 64.0667 31.4178C64.1426 31.3301 64.1818 31.2167 64.1763 31.1009C64.1721 31.02 64.1503 30.941 64.1124 30.8694C64.0746 30.7978 64.0216 30.7353 63.9571 30.6863C63.8476 30.5734 63.7006 30.5043 63.5437 30.4921C63.4853 30.489 63.427 30.4982 63.3724 30.5192C63.3178 30.5401 63.2682 30.5723 63.2269 30.6137C63.1855 30.655 63.1533 30.7046 63.1324 30.7592C63.1115 30.8137 63.1022 30.8721 63.1053 30.9305V30.9281ZM72.1391 30.9281C72.1472 31.0075 72.172 31.0844 72.2118 31.1535C72.2516 31.2227 72.3056 31.2827 72.3702 31.3296C72.4825 31.4482 72.6341 31.5219 72.7967 31.5369C72.8531 31.5402 72.9096 31.5313 72.9622 31.5107C73.0149 31.4901 73.0624 31.4584 73.1017 31.4178C73.1766 31.3296 73.2153 31.2164 73.2101 31.1009C73.2058 31.0201 73.1841 30.9413 73.1465 30.8697C73.1089 30.7981 73.0562 30.7356 72.9921 30.6863C72.8819 30.5736 72.7346 30.5046 72.5775 30.4921C72.5191 30.489 72.4607 30.4982 72.4061 30.5192C72.3515 30.5401 72.302 30.5723 72.2606 30.6137C72.2193 30.655 72.1871 30.7046 72.1662 30.7592C72.1452 30.8137 72.136 30.8721 72.1391 30.9305V30.9281ZM80.4914 30.9281C80.4995 31.0075 80.5243 31.0844 80.5641 31.1535C80.6039 31.2227 80.6579 31.2827 80.7225 31.3296C80.8348 31.4482 80.9864 31.5219 81.149 31.5369C81.2055 31.5402 81.2619 31.5313 81.3146 31.5107C81.3672 31.4901 81.4148 31.4584 81.454 31.4178C81.5289 31.3296 81.5676 31.2164 81.5624 31.1009C81.5582 31.02 81.5364 30.941 81.4985 30.8694C81.4607 30.7978 81.4077 30.7353 81.3432 30.6863C81.2337 30.5734 81.0867 30.5043 80.9298 30.4921C80.8714 30.489 80.8131 30.4982 80.7585 30.5192C80.7039 30.5401 80.6543 30.5723 80.613 30.6137C80.5716 30.655 80.5394 30.7046 80.5185 30.7592C80.4976 30.8137 80.4883 30.8721 80.4914 30.9305V30.9281Z"/>
</mask>
<path d="M65.1508 51.2628C64.5204 51.2681 63.8903 51.2359 63.2638 51.1663C62.7854 51.1174 62.3237 50.9636 61.9116 50.7159C61.5154 50.4536 61.1995 50.0866 60.9991 49.6557C60.719 49.0501 60.5145 48.4123 60.3903 47.7567C60.1914 46.7724 60.0451 45.7782 59.9519 44.7784C59.8304 43.5871 59.7045 42.1464 59.5742 40.4563C59.444 38.7662 59.3427 37.3255 59.2705 36.1342C59.1966 34.9429 59.164 33.9501 59.1728 33.1559C59.1649 32.5188 59.222 31.8825 59.3431 31.2569C59.448 30.786 59.6144 30.4329 59.8423 30.1979C60.0787 29.9574 60.3861 29.7992 60.7191 29.7463C61.1523 29.6762 61.5908 29.6439 62.0296 29.6498C62.8087 29.6498 63.4214 29.7106 63.8678 29.8321C64.3141 29.9536 64.6632 30.2622 64.9149 30.7578C65.1667 31.2534 65.3533 31.9999 65.4749 32.9975C65.5964 33.995 65.7155 35.3626 65.8322 37.1004C65.945 38.854 66.0344 40.226 66.1003 41.2164C66.1662 42.2067 66.219 42.9533 66.2587 43.456C66.2992 43.9604 66.3274 44.2729 66.3433 44.3936C66.36 44.5127 66.3838 44.5759 66.4172 44.5759C66.4505 44.5759 66.4529 44.5151 66.4779 44.3936C66.503 44.2721 66.5339 43.96 66.5756 43.456C66.6173 42.9521 66.6721 42.2063 66.746 41.2164C66.8199 40.2264 66.9199 38.854 67.0498 37.1004C67.1796 35.3467 67.288 33.9958 67.4155 32.9975C67.543 31.9991 67.736 31.2534 67.9873 30.7578C68.2387 30.2622 68.5925 29.9536 69.0464 29.8321C70.2683 29.5891 71.526 29.5891 72.7479 29.8321C73.2021 29.9536 73.5552 30.2622 73.8069 30.7578C74.0587 31.2534 74.2497 31.9999 74.38 32.9975C74.5094 33.9958 74.6393 35.3634 74.7695 37.1004C74.8807 38.8476 74.976 40.2164 75.0554 41.2068C75.1349 42.1972 75.1916 42.9438 75.2258 43.4465C75.2663 43.9508 75.2945 44.2634 75.3104 44.3841C75.3271 44.5032 75.3509 44.5664 75.3842 44.5664C75.3993 44.5664 75.4196 44.5056 75.445 44.3841C75.4704 44.2626 75.503 43.95 75.5427 43.4465C75.5832 42.9438 75.6356 42.1972 75.6999 41.2068C75.7643 40.2164 75.8536 38.8444 75.968 37.0908C76.0808 35.3539 76.1999 33.9862 76.3254 32.9879C76.4509 31.9896 76.6375 31.243 76.8853 30.7482C77.1363 30.2527 77.4853 29.9441 77.9325 29.8226C78.3796 29.7011 78.9924 29.6403 79.7707 29.6403C80.2095 29.6345 80.6479 29.6668 81.0811 29.7368C81.4138 29.7899 81.7206 29.9481 81.9567 30.1883C82.1839 30.4266 82.3507 30.7796 82.4571 31.2474C82.5771 31.8731 82.6341 32.5093 82.6275 33.1464C82.6346 33.9406 82.602 34.9333 82.5298 36.1247C82.4575 37.316 82.3558 38.7567 82.2248 40.4468C82.0914 42.1384 81.9651 43.5807 81.846 44.7736C81.7522 45.7734 81.6058 46.7676 81.4076 47.7519C81.2827 48.4074 81.0783 49.0451 80.7988 49.6509C80.5995 50.0793 80.2879 50.4458 79.897 50.7112C79.4903 50.9603 79.0325 51.1142 78.5579 51.1615C77.9314 51.2311 77.3012 51.2633 76.6709 51.258C75.7949 51.2718 74.919 51.2232 74.05 51.1126C73.4074 51.015 72.9162 50.7715 72.5763 50.3824C72.2364 49.9932 71.9981 49.4087 71.8615 48.6287C71.7233 47.8496 71.5974 46.7774 71.4839 45.4122C71.3703 44.0469 71.2809 42.9747 71.2158 42.1956C71.1515 41.4165 71.0991 40.8359 71.0586 40.4539C71.0181 40.0719 70.9855 39.8336 70.9609 39.7391C70.9359 39.6414 70.9156 39.5938 70.9001 39.5938C70.8846 39.5938 70.8429 39.6414 70.8263 39.7391C70.8096 39.8368 70.7822 40.0763 70.7417 40.4539C70.7012 40.8316 70.6523 41.4165 70.5951 42.1956C70.538 42.9747 70.4534 44.0457 70.3402 45.4122C70.227 46.7786 70.1019 47.8472 69.9506 48.6287C69.7993 49.4103 69.5599 49.9916 69.2192 50.3824C68.8785 50.7731 68.3852 51.015 67.7586 51.1126C66.8941 51.225 66.0225 51.2752 65.1508 51.2628V51.2628ZM63.1053 30.9281C63.1134 31.0075 63.1382 31.0844 63.178 31.1535C63.2178 31.2227 63.2718 31.2827 63.3364 31.3296C63.4484 31.4486 63.6002 31.5224 63.7629 31.5369C63.8192 31.5403 63.8755 31.5315 63.928 31.5109C63.9805 31.4903 64.0278 31.4585 64.0667 31.4178C64.1426 31.3301 64.1818 31.2167 64.1763 31.1009C64.1721 31.02 64.1503 30.941 64.1124 30.8694C64.0746 30.7978 64.0216 30.7353 63.9571 30.6863C63.8476 30.5734 63.7006 30.5043 63.5437 30.4921C63.4853 30.489 63.427 30.4982 63.3724 30.5192C63.3178 30.5401 63.2682 30.5723 63.2269 30.6137C63.1855 30.655 63.1533 30.7046 63.1324 30.7592C63.1115 30.8137 63.1022 30.8721 63.1053 30.9305V30.9281ZM72.1391 30.9281C72.1472 31.0075 72.172 31.0844 72.2118 31.1535C72.2516 31.2227 72.3056 31.2827 72.3702 31.3296C72.4825 31.4482 72.6341 31.5219 72.7967 31.5369C72.8531 31.5402 72.9096 31.5313 72.9622 31.5107C73.0149 31.4901 73.0624 31.4584 73.1017 31.4178C73.1766 31.3296 73.2153 31.2164 73.2101 31.1009C73.2058 31.0201 73.1841 30.9413 73.1465 30.8697C73.1089 30.7981 73.0562 30.7356 72.9921 30.6863C72.8819 30.5736 72.7346 30.5046 72.5775 30.4921C72.5191 30.489 72.4607 30.4982 72.4061 30.5192C72.3515 30.5401 72.302 30.5723 72.2606 30.6137C72.2193 30.655 72.1871 30.7046 72.1662 30.7592C72.1452 30.8137 72.136 30.8721 72.1391 30.9305V30.9281ZM80.4914 30.9281C80.4995 31.0075 80.5243 31.0844 80.5641 31.1535C80.6039 31.2227 80.6579 31.2827 80.7225 31.3296C80.8348 31.4482 80.9864 31.5219 81.149 31.5369C81.2055 31.5402 81.2619 31.5313 81.3146 31.5107C81.3672 31.4901 81.4148 31.4584 81.454 31.4178C81.5289 31.3296 81.5676 31.2164 81.5624 31.1009C81.5582 31.02 81.5364 30.941 81.4985 30.8694C81.4607 30.7978 81.4077 30.7353 81.3432 30.6863C81.2337 30.5734 81.0867 30.5043 80.9298 30.4921C80.8714 30.489 80.8131 30.4982 80.7585 30.5192C80.7039 30.5401 80.6543 30.5723 80.613 30.6137C80.5716 30.655 80.5394 30.7046 80.5185 30.7592C80.4976 30.8137 80.4883 30.8721 80.4914 30.9305V30.9281Z" fill="#6D94F0"/>
<path d="M65.1508 51.2628C64.5204 51.2681 63.8903 51.2359 63.2638 51.1663C62.7854 51.1174 62.3237 50.9636 61.9116 50.7159C61.5154 50.4536 61.1995 50.0866 60.9991 49.6557C60.719 49.0501 60.5145 48.4123 60.3903 47.7567C60.1914 46.7724 60.0451 45.7782 59.9519 44.7784C59.8304 43.5871 59.7045 42.1464 59.5742 40.4563C59.444 38.7662 59.3427 37.3255 59.2705 36.1342C59.1966 34.9429 59.164 33.9501 59.1728 33.1559C59.1649 32.5188 59.222 31.8825 59.3431 31.2569C59.448 30.786 59.6144 30.4329 59.8423 30.1979C60.0787 29.9574 60.3861 29.7992 60.7191 29.7463C61.1523 29.6762 61.5908 29.6439 62.0296 29.6498C62.8087 29.6498 63.4214 29.7106 63.8678 29.8321C64.3141 29.9536 64.6632 30.2622 64.9149 30.7578C65.1667 31.2534 65.3533 31.9999 65.4749 32.9975C65.5964 33.995 65.7155 35.3626 65.8322 37.1004C65.945 38.854 66.0344 40.226 66.1003 41.2164C66.1662 42.2067 66.219 42.9533 66.2587 43.456C66.2992 43.9604 66.3274 44.2729 66.3433 44.3936C66.36 44.5127 66.3838 44.5759 66.4172 44.5759C66.4505 44.5759 66.4529 44.5151 66.4779 44.3936C66.503 44.2721 66.5339 43.96 66.5756 43.456C66.6173 42.9521 66.6721 42.2063 66.746 41.2164C66.8199 40.2264 66.9199 38.854 67.0498 37.1004C67.1796 35.3467 67.288 33.9958 67.4155 32.9975C67.543 31.9991 67.736 31.2534 67.9873 30.7578C68.2387 30.2622 68.5925 29.9536 69.0464 29.8321C70.2683 29.5891 71.526 29.5891 72.7479 29.8321C73.2021 29.9536 73.5552 30.2622 73.8069 30.7578C74.0587 31.2534 74.2497 31.9999 74.38 32.9975C74.5094 33.9958 74.6393 35.3634 74.7695 37.1004C74.8807 38.8476 74.976 40.2164 75.0554 41.2068C75.1349 42.1972 75.1916 42.9438 75.2258 43.4465C75.2663 43.9508 75.2945 44.2634 75.3104 44.3841C75.3271 44.5032 75.3509 44.5664 75.3842 44.5664C75.3993 44.5664 75.4196 44.5056 75.445 44.3841C75.4704 44.2626 75.503 43.95 75.5427 43.4465C75.5832 42.9438 75.6356 42.1972 75.6999 41.2068C75.7643 40.2164 75.8536 38.8444 75.968 37.0908C76.0808 35.3539 76.1999 33.9862 76.3254 32.9879C76.4509 31.9896 76.6375 31.243 76.8853 30.7482C77.1363 30.2527 77.4853 29.9441 77.9325 29.8226C78.3796 29.7011 78.9924 29.6403 79.7707 29.6403C80.2095 29.6345 80.6479 29.6668 81.0811 29.7368C81.4138 29.7899 81.7206 29.9481 81.9567 30.1883C82.1839 30.4266 82.3507 30.7796 82.4571 31.2474C82.5771 31.8731 82.6341 32.5093 82.6275 33.1464C82.6346 33.9406 82.602 34.9333 82.5298 36.1247C82.4575 37.316 82.3558 38.7567 82.2248 40.4468C82.0914 42.1384 81.9651 43.5807 81.846 44.7736C81.7522 45.7734 81.6058 46.7676 81.4076 47.7519C81.2827 48.4074 81.0783 49.0451 80.7988 49.6509C80.5995 50.0793 80.2879 50.4458 79.897 50.7112C79.4903 50.9603 79.0325 51.1142 78.5579 51.1615C77.9314 51.2311 77.3012 51.2633 76.6709 51.258C75.7949 51.2718 74.919 51.2232 74.05 51.1126C73.4074 51.015 72.9162 50.7715 72.5763 50.3824C72.2364 49.9932 71.9981 49.4087 71.8615 48.6287C71.7233 47.8496 71.5974 46.7774 71.4839 45.4122C71.3703 44.0469 71.2809 42.9747 71.2158 42.1956C71.1515 41.4165 71.0991 40.8359 71.0586 40.4539C71.0181 40.0719 70.9855 39.8336 70.9609 39.7391C70.9359 39.6414 70.9156 39.5938 70.9001 39.5938C70.8846 39.5938 70.8429 39.6414 70.8263 39.7391C70.8096 39.8368 70.7822 40.0763 70.7417 40.4539C70.7012 40.8316 70.6523 41.4165 70.5951 42.1956C70.538 42.9747 70.4534 44.0457 70.3402 45.4122C70.227 46.7786 70.1019 47.8472 69.9506 48.6287C69.7993 49.4103 69.5599 49.9916 69.2192 50.3824C68.8785 50.7731 68.3852 51.015 67.7586 51.1126C66.8941 51.225 66.0225 51.2752 65.1508 51.2628V51.2628ZM63.1053 30.9281C63.1134 31.0075 63.1382 31.0844 63.178 31.1535C63.2178 31.2227 63.2718 31.2827 63.3364 31.3296C63.4484 31.4486 63.6002 31.5224 63.7629 31.5369C63.8192 31.5403 63.8755 31.5315 63.928 31.5109C63.9805 31.4903 64.0278 31.4585 64.0667 31.4178C64.1426 31.3301 64.1818 31.2167 64.1763 31.1009C64.1721 31.02 64.1503 30.941 64.1124 30.8694C64.0746 30.7978 64.0216 30.7353 63.9571 30.6863C63.8476 30.5734 63.7006 30.5043 63.5437 30.4921C63.4853 30.489 63.427 30.4982 63.3724 30.5192C63.3178 30.5401 63.2682 30.5723 63.2269 30.6137C63.1855 30.655 63.1533 30.7046 63.1324 30.7592C63.1115 30.8137 63.1022 30.8721 63.1053 30.9305V30.9281ZM72.1391 30.9281C72.1472 31.0075 72.172 31.0844 72.2118 31.1535C72.2516 31.2227 72.3056 31.2827 72.3702 31.3296C72.4825 31.4482 72.6341 31.5219 72.7967 31.5369C72.8531 31.5402 72.9096 31.5313 72.9622 31.5107C73.0149 31.4901 73.0624 31.4584 73.1017 31.4178C73.1766 31.3296 73.2153 31.2164 73.2101 31.1009C73.2058 31.0201 73.1841 30.9413 73.1465 30.8697C73.1089 30.7981 73.0562 30.7356 72.9921 30.6863C72.8819 30.5736 72.7346 30.5046 72.5775 30.4921C72.5191 30.489 72.4607 30.4982 72.4061 30.5192C72.3515 30.5401 72.302 30.5723 72.2606 30.6137C72.2193 30.655 72.1871 30.7046 72.1662 30.7592C72.1452 30.8137 72.136 30.8721 72.1391 30.9305V30.9281ZM80.4914 30.9281C80.4995 31.0075 80.5243 31.0844 80.5641 31.1535C80.6039 31.2227 80.6579 31.2827 80.7225 31.3296C80.8348 31.4482 80.9864 31.5219 81.149 31.5369C81.2055 31.5402 81.2619 31.5313 81.3146 31.5107C81.3672 31.4901 81.4148 31.4584 81.454 31.4178C81.5289 31.3296 81.5676 31.2164 81.5624 31.1009C81.5582 31.02 81.5364 30.941 81.4985 30.8694C81.4607 30.7978 81.4077 30.7353 81.3432 30.6863C81.2337 30.5734 81.0867 30.5043 80.9298 30.4921C80.8714 30.489 80.8131 30.4982 80.7585 30.5192C80.7039 30.5401 80.6543 30.5723 80.613 30.6137C80.5716 30.655 80.5394 30.7046 80.5185 30.7592C80.4976 30.8137 80.4883 30.8721 80.4914 30.9305V30.9281Z" stroke="white" stroke-width="0.6" stroke-miterlimit="10" mask="url(#path-9-outside-2_131_1548)"/>
<path d="M79.3485 47.1944L79.3487 47.1945C79.4375 46.9681 79.645 46.814 79.9217 46.7129L79.9301 46.7098L79.9302 46.7101C80.3203 46.5933 80.7256 46.5353 81.1328 46.5381C81.6536 46.5207 82.3645 46.512 83.2648 46.512C84.1659 46.512 84.873 46.5163 85.3857 46.5251C85.386 46.5251 85.3864 46.5251 85.3867 46.5251L85.3842 46.6751C85.7678 46.6761 86.1511 46.6972 86.5326 46.7382L79.3485 47.1944ZM79.3485 47.1944L79.3463 47.2011C79.2627 47.4475 79.2253 47.7072 79.2359 47.9672M79.3485 47.1944L90.0268 39.4121V38.7278C90.0268 38.3515 89.9566 38.084 89.8357 37.9052C89.7285 37.7466 89.5417 37.6531 89.2333 37.6531H88.0587C87.7495 37.6531 87.5631 37.7475 87.4561 37.9053L87.4559 37.9057C87.3342 38.0842 87.264 38.3514 87.264 38.7278V38.7333L87.2638 38.7333C87.2516 39.0636 87.3414 39.3897 87.521 39.6672L87.5233 39.6707L87.5232 39.6707C87.6161 39.8232 87.7396 39.9547 87.886 40.0569C88.0827 40.1779 88.2934 40.2749 88.5133 40.3458L88.5174 40.3471L88.5174 40.3472C88.8026 40.4482 89.1784 40.5665 89.6456 40.7019C90.1169 40.8385 90.7358 41.035 91.5015 41.291L91.5027 41.2914L94.7681 42.4144C95.2699 42.5774 95.7415 42.822 96.1638 43.1383L96.1642 43.1386C96.5546 43.4333 96.9 43.7832 97.1895 44.1774L97.1897 44.1776C97.7393 44.929 98.0357 45.8356 98.0359 46.7665L98.0608 48.0147L98.0609 48.0165C98.0681 48.9517 97.9994 49.8859 97.8555 50.8099M97.8555 50.8099C97.8554 50.8101 97.8554 50.8104 97.8554 50.8106L97.7072 50.7875L97.8556 50.8091C97.8556 50.8094 97.8555 50.8096 97.8555 50.8099ZM97.8555 50.8099C97.7419 51.5902 97.4544 52.3351 97.0144 52.9894L97.012 52.9929L97.012 52.9928C96.5625 53.6221 95.9424 54.1095 95.2248 54.3976M95.2248 54.3976C95.2253 54.3973 95.2259 54.3971 95.2264 54.3968L95.1673 54.259L95.2231 54.3982C95.2236 54.398 95.2242 54.3978 95.2248 54.3976ZM95.2248 54.3976C94.4594 54.7257 93.4719 54.8855 92.27 54.8855H85.0268C83.2465 54.8855 81.8279 54.4145 80.7899 53.4554C79.7474 52.4921 79.2367 51.0898 79.2359 49.2746L79.2359 49.2745L79.2359 47.9672M79.2359 47.9672C79.2359 47.9683 79.236 47.9693 79.236 47.9704L79.3859 47.9641H79.2359V47.9672ZM90.0318 47.7936C90.0478 48.0839 89.9801 48.3727 89.8367 48.6256L91.9236 40.2692C91.9241 40.2692 91.9246 40.2692 91.9251 40.2692C92.4446 40.2764 93.1552 40.2804 94.0568 40.2811C94.9583 40.2819 95.6664 40.2693 96.1799 40.243C96.5817 40.2378 96.9808 40.1757 97.3652 40.0584C97.4934 40.0232 97.6121 39.9598 97.7126 39.8728C97.8138 39.7853 97.8939 39.6762 97.9472 39.5535L97.9508 39.5454L97.9533 39.5368C98.0346 39.2656 98.0709 38.983 98.0609 38.7001V37.2732C98.0609 35.4571 97.5502 34.0543 96.5068 33.091C95.4681 32.132 94.0495 31.661 92.27 31.661L85.0221 31.661C85.022 31.661 85.022 31.661 85.022 31.661C83.2425 31.6602 81.8239 32.1312 80.7851 33.0911C79.7418 34.0552 79.2311 35.4579 79.2311 37.2732L79.2311 39.464L79.2311 39.4641C79.2319 40.6637 79.5275 41.6596 80.1296 42.4398L80.13 42.4404C80.7376 43.2205 81.5601 43.8057 82.4962 44.124L85.8623 45.3726C86.649 45.6778 87.2864 45.9125 87.7738 46.0762C88.2573 46.2387 88.6376 46.3741 88.9155 46.4824L88.9155 46.4825L88.9184 46.4835C89.1259 46.5595 89.3249 46.6568 89.5122 46.7737C89.6367 46.8624 89.7436 46.9736 89.8274 47.1015L89.8274 47.1016C89.9606 47.3048 90.0316 47.5424 90.0316 47.7854H90.0314L90.0318 47.7936ZM94.0867 34.0817H94.0056C93.9236 34.074 93.8431 34.0536 93.767 34.0212C93.7267 34.0038 93.6792 33.9595 93.6792 33.8017C93.6792 33.6457 93.7262 33.5901 93.7742 33.5657C93.88 33.5149 93.9963 33.4896 94.1137 33.4918L94.1164 33.4918C94.5085 33.4921 94.895 33.5845 95.2449 33.7616L95.2452 33.7618C95.4135 33.8463 95.5633 33.9633 95.6862 34.1059C95.809 34.2486 95.9025 34.4141 95.9611 34.593L95.9608 34.5931L95.9645 34.6023C95.997 34.6828 96.029 34.7763 96.0629 34.8852L96.0631 34.8856C96.0912 34.975 96.1062 35.068 96.1073 35.1616L96.1072 35.1616L96.1075 35.1673C96.1095 35.2075 96.1031 35.2477 96.0886 35.2852C96.0742 35.3227 96.052 35.3568 96.0235 35.3852C95.995 35.4136 95.9609 35.4357 95.9233 35.4501C95.8858 35.4644 95.8456 35.4708 95.8054 35.4686L95.8054 35.4684H95.7975C95.7094 35.4684 95.6568 35.4535 95.6265 35.436C95.6011 35.4213 95.5827 35.4003 95.5711 35.3601C95.5273 35.2078 95.4752 35.048 95.4164 34.8765L95.4164 34.8764L95.4151 34.8728C95.3377 34.665 95.209 34.4802 95.0408 34.3356C94.8356 34.1533 94.5025 34.0817 94.0867 34.0817Z" fill="#6D94F0" stroke="white" stroke-width="0.3" stroke-miterlimit="10"/>
<path d="M10.91 14.9191C10.91 14.9191 6.74749 5.31464 16.5723 3.94582C26.3971 2.57699 22.6564 12.9498 22.6564 12.9498C22.6564 12.9498 30.5453 7.39588 33.3913 13.5169C36.2374 19.6379 28.6356 21.3212 28.6356 21.3212C28.6356 21.3212 34.815 28.6002 30.606 33.1379C26.3971 37.6756 20.1224 33.1379 20.1224 33.1379C20.1224 33.1379 17.3371 38.7502 12.6826 36.7381C8.02816 34.7259 9.67694 28.9528 9.67694 28.9528C9.67694 28.9528 -0.991319 29.2339 0.0749112 20.828C1.14114 12.4221 10.91 14.9191 10.91 14.9191Z" fill="white"/>
<path d="M18.395 26.5252C20.9426 26.5252 23.0078 24.46 23.0078 21.9124C23.0078 19.3648 20.9426 17.2996 18.395 17.2996C15.8474 17.2996 13.7822 19.3648 13.7822 21.9124C13.7822 24.46 15.8474 26.5252 18.395 26.5252Z" fill="#FCE1AC"/>
</svg>
